<?xml version="1.0" encoding="utf-8"?>
<svg xmlns="http://www.w3.org/2000/svg" viewBox="0 0 1024 1024" xmlns:bx="https://boxy-svg.com" width="1024px" height="1024px"><defs><bx:export><bx:file format="svg" href="#object-0" path="logo.svg"/><bx:file format="png" path="logo.png"/><bx:file format="svg" path="logo.svg"/></bx:export></defs><g fill="#ffb81c" fill-rule="none" stroke="none" stroke-width="1" stroke-linecap="butt" stroke-linejoin="miter" stroke-miterlimit="10" stroke-dasharray="" stroke-dashoffset="0" font-family="none" font-weight="none" font-size="none" text-anchor="none" style="mix-blend-mode: normal; stroke: rgb(255, 184, 28); stroke-width: 1; fill-opacity: 1; stroke-opacity: 0; transition: fill-opacity 1200ms linear, stroke-opacity 1200ms;" transform="matrix(7.876924, 0, 0, 7.876956, 577.36676, -701.584656)" id="object-0"><g data-paper-data="{&quot;isGlobalGroup&quot;:true,&quot;bounds&quot;:{&quot;x&quot;:133.34822254427394,&quot;y&quot;:114.99999999999997,&quot;width&quot;:283.3035549114521,&quot;height&quot;:240.00000000000003}}" style="stroke: rgb(255, 184, 28); stroke-width: 1; fill-opacity: 1; stroke-opacity: 0; transition: fill-opacity 1200ms linear, stroke-opacity 1200ms;"><g data-paper-data="{&quot;isIcon&quot;:&quot;true&quot;,&quot;iconType&quot;:&quot;icon&quot;,&quot;rawIconId&quot;:&quot;oEgAFMaYbqD1vmANoJGoJ65qAmESpq6wqYOajoFF3l&quot;,&quot;source&quot;:&quot;ai&quot;,&quot;selectedEffects&quot;:{&quot;container&quot;:&quot;&quot;,&quot;transformation&quot;:&quot;&quot;,&quot;pattern&quot;:&quot;&quot;},&quot;isDetailed&quot;:false,&quot;iconStyle&quot;:&quot;standalone&quot;,&quot;bounds&quot;:{&quot;x&quot;:209.22662225098355,&quot;y&quot;:114.99999999999997,&quot;width&quot;:131.5467554980329,&quot;height&quot;:123.95989734962654},&quot;fillRule&quot;:&quot;evenodd&quot;,&quot;suitableAsStandaloneIcon&quot;:true}" fill-rule="evenodd" style="stroke: rgb(255, 184, 28); stroke-width: 1; fill-opacity: 1; stroke-opacity: 0; transition: fill-opacity 1200ms linear, stroke-opacity 1200ms;"><g data-paper-data="{&quot;isPathIcon&quot;:true}" style="stroke: rgb(255, 184, 28); stroke-width: 1; fill-opacity: 1; stroke-opacity: 0; transition: fill-opacity 1200ms linear, stroke-opacity 1200ms;"><path d="M -10.911 89.4 C -12.996 89.878 -15.375 91.289 -16.949 92.976 C -18.381 94.514 -18.293 94.339 -25.389 109.818 C -31.631 123.431 -32.257 124.658 -33.369 125.476 L -34.392 126.23 L -48.717 126.366 C -62.709 126.498 -63.079 126.514 -64.613 127.057 C -67.65 128.133 -70.522 130.732 -71.922 133.673 C -73.824 137.674 -73.754 141.863 -71.718 146.001 C -70.66 148.147 -70.055 148.799 -56.57 162.292 C -49.838 169.029 -46.451 172.586 -46.199 173.192 C -45.486 174.899 -45.692 176.131 -48.368 186.119 C -49.771 191.355 -51.354 197.275 -51.886 199.275 C -53.422 205.043 -53.381 208.328 -51.729 211.958 C -48.818 218.352 -42.011 220.822 -35.731 217.76 C -35.038 217.422 -29.583 213.593 -23.608 209.252 C -17.634 204.911 -12.216 201.03 -11.567 200.629 C -10.498 199.969 -10.181 199.9 -8.238 199.9 L -6.092 199.9 L -0.21 204.08 C 3.025 206.378 7.584 209.651 9.922 211.355 C 12.259 213.057 15.198 215.195 16.454 216.106 C 17.708 217.018 19.355 218.015 20.114 218.32 C 21.846 219.023 25.265 219.267 27.07 218.821 C 32.783 217.408 36.956 211.137 36.401 204.797 C 36.274 203.348 34.717 197.068 31.21 183.862 C 29.152 176.109 29.087 175.76 29.408 174.216 C 29.678 172.919 29.871 172.653 32.677 169.691 C 34.317 167.961 37.94 164.298 40.726 161.548 C 50.608 151.802 53.507 148.802 54.34 147.469 C 59.261 139.603 56.206 130.036 47.821 127.048 C 46.329 126.517 45.877 126.497 32.117 126.366 C 16.577 126.217 17.327 126.294 15.903 124.687 C 15.342 124.054 6.469 105.104 3.539 98.288 C 2.156 95.067 1.446 93.937 -0.155 92.412 C -1.801 90.841 -3.832 89.787 -6.008 89.373 C -8.195 88.96 -9.027 88.964 -10.911 89.4 Z M -9.47 100.04 C -10.217 100.362 -10.697 101.216 -12.984 106.31 C -14.128 108.859 -17.12 115.382 -19.633 120.805 C -23.996 130.228 -24.268 130.742 -25.756 132.375 C -27.415 134.198 -29.671 135.653 -31.846 136.3 C -32.807 136.586 -35.969 136.688 -47.34 136.801 C -55.487 136.882 -61.807 137.044 -62.051 137.178 C -62.714 137.544 -63.394 138.918 -63.395 139.895 C -63.396 140.413 -63.177 141.101 -62.865 141.562 C -62.376 142.283 -56.241 148.411 -49.005 155.406 C -47.374 156.981 -44.754 159.547 -43.18 161.106 L -40.319 163.943 L -38.255 163.943 C -36.34 163.943 -36.129 163.993 -35.331 164.661 C -33.473 166.211 -32.517 166.569 -30.22 166.571 C -28.341 166.572 -27.973 166.498 -27.033 165.907 C -25.625 165.023 -24.803 164.072 -24.201 162.627 C -22.174 157.763 -25.286 152.655 -30.265 152.672 C -32.08 152.678 -33.245 153.137 -35.158 154.598 C -36.127 155.339 -36.57 155.516 -37.454 155.518 C -39.341 155.52 -40.305 154.437 -40.72 151.846 C -41.286 148.307 -41.284 148.275 -40.473 147.295 C -39.511 146.132 -37.33 144.781 -35.201 144.026 C -29.618 142.047 -23.331 143.763 -18.964 148.454 C -14.248 153.519 -13.386 161.837 -16.921 168.138 C -20.101 173.805 -27.533 177.247 -33.845 175.976 C -35.316 175.68 -35.73 175.823 -35.916 176.687 C -36.123 177.646 -39.783 191.619 -41.69 198.731 C -42.589 202.084 -43.325 205.185 -43.325 205.622 C -43.323 207.382 -41.779 208.774 -40.201 208.439 C -39.777 208.349 -38.154 207.329 -36.595 206.17 C -35.037 205.012 -30.415 201.672 -26.324 198.75 C -22.234 195.825 -18.661 193.22 -18.386 192.958 L -17.886 192.482 L -18.667 190.555 C -19.096 189.492 -19.627 187.673 -19.847 186.51 C -21.233 179.161 -17.215 171.28 -10.69 168.554 C -4.767 166.081 1.724 167.389 6.248 171.969 C 11.951 177.739 12.465 187.393 7.425 194.059 C 6.78 194.911 6.287 195.721 6.331 195.86 C 6.374 195.998 8.633 197.741 11.353 199.731 L 12.57 200.624 C 22.349 207.788 23.734 208.802 24.749 208.485 C 24.957 208.421 25.15 208.3 25.396 208.165 C 26.366 207.633 26.89 206.454 26.723 205.182 C 26.649 204.621 25.097 198.608 23.275 191.819 C 21.452 185.032 19.842 178.661 19.695 177.662 C 19.1 173.606 20.275 168.936 22.763 165.468 C 23.102 164.998 26.619 161.394 30.58 157.46 C 42.013 146.109 46.181 141.836 46.541 141.099 C 47.138 139.872 46.973 138.688 46.07 137.728 L 45.264 136.874 L 35.031 136.94 L 24.797 137.006 L 24.874 139.135 C 24.97 141.837 24.465 144.439 23.372 146.883 C 21.929 150.106 19.98 152.371 18.035 153.081 C 16.374 153.689 14.026 152.357 13.018 150.235 C 12.206 148.528 12.496 147.476 14.526 144.773 C 16.984 141.496 16.715 137.562 13.846 134.825 C 12.271 133.321 10.752 132.767 8.65 132.926 C 6.676 133.077 5.458 133.731 4.05 135.392 C 2.708 136.975 2.132 138.798 2.311 140.891 C 2.464 142.694 3.121 144.048 4.607 145.625 C 5.663 146.745 5.789 146.995 5.784 147.956 C 5.777 149.375 5.124 150.811 3.938 152.019 C 3.11 152.862 2.793 153.016 1.681 153.114 C 0.085 153.255 -0.684 152.806 -2.575 150.641 C -4.018 148.986 -5.531 145.929 -6.039 143.646 C -6.468 141.715 -6.417 138.084 -5.934 136.129 C -4.688 131.078 -1.767 127.36 2.897 124.878 C 3.709 124.446 4.372 124.039 4.372 123.973 C 4.372 123.908 2.034 118.749 -0.823 112.513 C -4.414 104.678 -6.239 100.958 -6.73 100.483 C -7.467 99.77 -8.463 99.608 -9.47 100.04 Z M -7.339 177.072 C -9.681 178.228 -10.996 180.227 -11.165 182.893 C -11.444 187.258 -8.645 190.562 -4.646 190.585 C -1.936 190.603 0.203 189.22 1.495 186.619 C 2.007 185.588 2.118 185.033 2.118 183.487 C 2.119 180.57 0.937 178.57 -1.579 177.236 C -3.466 176.236 -5.529 176.177 -7.339 177.072 Z" style="stroke: rgb(255, 184, 28); stroke-width: 1; fill-opacity: 1; stroke-opacity: 0; stroke-dasharray: 1113, 1153; stroke-dashoffset: 0px; transition: fill-opacity 1200ms linear, stroke-opacity 1200ms;"/></g></g></g></g></svg>