<?xml version="1.0" encoding="UTF-8"?>
<svg width="400" height="400" xmlns="http://www.w3.org/2000/svg">
  <rect width="400" height="400" fill="#FFC107"/>
  <path d="M74.24 288.48L74.24 288.48Q72.96 285.92 71.04 284.48Q69.12 283.04 69.12 281.76L69.12 281.76Q69.12 280.48 68.96 279.04Q68.80 277.60 67.52 276.32L67.52 276.32Q65.92 274.40 67.84 267.52Q69.76 260.64 74.24 250.56Q78.72 240.48 84.80 229.28L84.80 229.28Q87.36 226.72 89.92 222.56Q92.48 218.40 93.76 217.12L93.76 217.12Q93.76 215.84 94.72 214.72Q95.68 213.60 96.96 213.60L96.96 213.60L96.96 211.68Q96.96 210.08 100 206.24Q103.04 202.40 107.52 197.76Q112 193.12 116.80 188.80Q121.60 184.48 124.80 182.56L124.80 182.56Q131.52 178.08 138.72 177.12Q145.92 176.16 151.04 180.32L151.04 180.32Q152 181.28 154.24 183.52Q156.48 185.76 159.52 188.48Q162.56 191.20 165.76 194.08L165.76 194.08L177.60 204.64L171.84 220.64Q167.68 233.44 169.76 243.04Q171.84 252.64 176 259.68L176 259.68Q177.60 263.20 182.56 266.40Q187.52 269.60 192 270.24L192 270.24Q194.56 270.56 196.80 272.16Q199.04 273.76 199.04 277.28L199.04 277.28Q199.04 280.48 197.76 282.40Q196.48 284.32 193.28 284.96L193.28 284.96Q182.72 286.24 173.60 279.84Q164.48 273.44 156.80 258.72L156.80 258.72Q155.52 256.80 153.44 251.52Q151.36 246.24 151.04 244.64L151.04 244.64Q149.76 246.24 146.24 250.56Q142.72 254.88 140.80 256.80L140.80 256.80Q118.08 279.84 101.60 287.68Q85.12 295.52 74.24 288.48ZM85.76 270.56L85.76 270.56Q85.76 272.80 92.64 270.40Q99.52 268 107.52 261.60L107.52 261.60Q118.40 252.32 129.44 241.12Q140.48 229.92 147.20 220.32L147.20 220.32L154.24 208.80Q151.04 201.44 147.36 198.72Q143.68 196 141.12 196L141.12 196Q136.96 196 128.80 203.68Q120.64 211.36 111.36 224.16Q102.08 236.96 93.76 252.32L93.76 252.32Q90.56 258.72 88.16 264.64Q85.76 270.56 85.76 270.56Z" fill="none" stroke="white" stroke-width="3" stroke-dasharray="15,15" opacity="0.7"/>
  <path d="M74.24 288.48L74.24 288.48Q72.96 285.92 71.04 284.48Q69.12 283.04 69.12 281.76L69.12 281.76Q69.12 280.48 68.96 279.04Q68.80 277.60 67.52 276.32L67.52 276.32Q65.92 274.40 67.84 267.52Q69.76 260.64 74.24 250.56Q78.72 240.48 84.80 229.28L84.80 229.28Q87.36 226.72 89.92 222.56Q92.48 218.40 93.76 217.12L93.76 217.12Q93.76 215.84 94.72 214.72Q95.68 213.60 96.96 213.60L96.96 213.60L96.96 211.68Q96.96 210.08 100 206.24Q103.04 202.40 107.52 197.76Q112 193.12 116.80 188.80Q121.60 184.48 124.80 182.56L124.80 182.56Q131.52 178.08 138.72 177.12Q145.92 176.16 151.04 180.32L151.04 180.32Q152 181.28 154.24 183.52Q156.48 185.76 159.52 188.48Q162.56 191.20 165.76 194.08L165.76 194.08L177.60 204.64L171.84 220.64Q167.68 233.44 169.76 243.04Q171.84 252.64 176 259.68L176 259.68Q177.60 263.20 182.56 266.40Q187.52 269.60 192 270.24L192 270.24Q194.56 270.56 196.80 272.16Q199.04 273.76 199.04 277.28L199.04 277.28Q199.04 280.48 197.76 282.40Q196.48 284.32 193.28 284.96L193.28 284.96Q182.72 286.24 173.60 279.84Q164.48 273.44 156.80 258.72L156.80 258.72Q155.52 256.80 153.44 251.52Q151.36 246.24 151.04 244.64L151.04 244.64Q149.76 246.24 146.24 250.56Q142.72 254.88 140.80 256.80L140.80 256.80Q118.08 279.84 101.60 287.68Q85.12 295.52 74.24 288.48ZM85.76 270.56L85.76 270.56Q85.76 272.80 92.64 270.40Q99.52 268 107.52 261.60L107.52 261.60Q118.40 252.32 129.44 241.12Q140.48 229.92 147.20 220.32L147.20 220.32L154.24 208.80Q151.04 201.44 147.36 198.72Q143.68 196 141.12 196L141.12 196Q136.96 196 128.80 203.68Q120.64 211.36 111.36 224.16Q102.08 236.96 93.76 252.32L93.76 252.32Q90.56 258.72 88.16 264.64Q85.76 270.56 85.76 270.56Z" fill="white" opacity="0.3"/>
</svg>